<?xml version="1.0" encoding="UTF-8" standalone="no"?>
<!DOCTYPE svg PUBLIC "-//W3C//DTD SVG 1.1//EN" "http://www.w3.org/Graphics/SVG/1.1/DTD/svg11.dtd">
<svg xmlns="http://www.w3.org/2000/svg" version="1.1" viewBox="0.00 0.00 1608.00 1260.00">
<path fill="#ffffff" d="
  M 805.56 322.92
  C 833.39 322.92 858.16 336.81 873.52 359.53
  Q 950.22 472.95 976.37 511.69
  A 0.48 0.47 49.1 0 0 977.11 511.75
  Q 1018.53 466.17 1095.56 381.06
  Q 1099.70 376.48 1106.36 370.98
  Q 1112.64 365.80 1118.62 362.76
  Q 1144.18 349.80 1171.08 355.17
  Q 1188.60 358.66 1203.20 369.12
  C 1224.87 384.65 1238.54 411.70 1238.56 438.34
  Q 1238.62 509.63 1238.56 774.93
  Q 1238.56 794.35 1237.13 802.01
  Q 1231.03 834.57 1204.55 855.56
  Q 1200.30 858.93 1194.77 861.83
  Q 1170.05 874.83 1143.71 870.98
  C 1121.07 867.68 1101.69 854.71 1088.98 836.00
  Q 1078.19 820.13 995.55 697.92
  A 0.50 0.49 -41.3 0 1 995.59 697.31
  L 1056.12 630.54
  A 0.45 0.45 0.0 0 1 1056.83 630.59
  L 1149.58 767.72
  A 0.28 0.28 0.0 0 0 1150.10 767.56
  Q 1150.10 465.50 1150.09 453.79
  Q 1150.09 453.46 1149.95 453.30
  A 0.27 0.26 -43.0 0 0 1149.55 453.29
  Q 1037.15 577.33 870.05 761.80
  C 864.66 767.74 857.60 775.13 850.48 779.46
  Q 828.57 792.79 805.57 792.80
  Q 782.56 792.80 760.65 779.46
  C 753.53 775.13 746.47 767.74 741.08 761.80
  Q 573.97 577.34 461.57 453.30
  A 0.27 0.26 43.0 0 0 461.17 453.31
  Q 461.03 453.47 461.03 453.80
  Q 461.02 465.51 461.03 767.57
  A 0.28 0.28 0.0 0 0 461.55 767.73
  L 554.30 630.60
  A 0.45 0.45 0.0 0 1 555.01 630.55
  L 615.54 697.32
  A 0.50 0.49 41.3 0 1 615.58 697.93
  Q 532.94 820.14 522.15 836.01
  C 509.44 854.72 490.06 867.69 467.42 870.99
  Q 441.08 874.84 416.36 861.84
  Q 410.83 858.94 406.58 855.57
  Q 380.10 834.58 374.00 802.02
  Q 372.57 794.36 372.57 774.94
  Q 372.50 509.64 372.56 438.35
  C 372.58 411.71 386.25 384.66 407.92 369.13
  Q 422.52 358.67 440.04 355.18
  Q 466.94 349.81 492.50 362.77
  Q 498.48 365.81 504.76 370.99
  Q 511.42 376.49 515.56 381.07
  Q 592.59 466.18 634.01 511.76
  A 0.48 0.47 -49.1 0 0 634.75 511.70
  Q 660.90 472.95 737.60 359.53
  C 752.96 336.81 777.73 322.92 805.56 322.92
  Z
  M 915.24 579.96
  A 0.52 0.52 0.0 0 0 915.29 579.32
  L 805.97 417.69
  A 0.52 0.52 0.0 0 0 805.11 417.69
  L 695.80 579.32
  A 0.52 0.52 0.0 0 0 695.85 579.96
  L 805.17 698.69
  A 0.52 0.52 0.0 0 0 805.93 698.69
  L 915.24 579.96
  Z"
/>
</svg>
