<?xml version="1.0" encoding="UTF-8" standalone="no"?>
<!DOCTYPE svg PUBLIC "-//W3C//DTD SVG 1.1//EN" "http://www.w3.org/Graphics/SVG/1.1/DTD/svg11.dtd">
<svg xmlns="http://www.w3.org/2000/svg" version="1.1" viewBox="0.00 0.00 960.00 142.00">
<path fill="#f6bb13" d="
  M 128.34 10.24
  C 136.36 10.24 141.34 14.63 145.68 21.36
  Q 148.93 26.42 166.35 52.04
  A 0.34 0.34 0.0 0 0 166.88 52.07
  Q 189.12 27.64 190.62 25.87
  Q 195.13 20.58 198.57 18.97
  C 211.24 13.05 225.18 22.39 225.20 36.25
  Q 225.20 38.83 225.19 113.25
  C 225.19 125.50 215.43 135.18 203.04 132.87
  C 196.91 131.73 193.39 128.13 189.79 122.70
  Q 185.42 116.13 170.70 94.45
  A 0.60 0.60 0.0 0 1 170.76 93.70
  L 184.01 79.30
  A 0.38 0.37 48.6 0 1 184.59 79.34
  L 204.97 108.89
  A 0.13 0.13 0.0 0 0 205.20 108.81
  L 205.20 40.21
  A 0.16 0.16 0.0 0 0 204.92 40.10
  Q 170.63 77.90 142.72 108.72
  Q 136.57 115.51 128.32 115.51
  Q 120.06 115.51 113.91 108.72
  Q 86.02 77.88 51.74 40.07
  A 0.16 0.16 0.0 0 0 51.46 40.18
  L 51.43 108.78
  A 0.13 0.13 0.0 0 0 51.66 108.86
  L 72.06 79.32
  A 0.38 0.37 -48.5 0 1 72.64 79.28
  L 85.88 93.68
  A 0.60 0.60 0.0 0 1 85.94 94.43
  Q 71.21 116.11 66.84 122.67
  C 63.24 128.10 59.71 131.70 53.58 132.84
  C 41.19 135.14 31.44 125.46 31.44 113.21
  Q 31.46 38.79 31.46 36.21
  C 31.49 22.35 45.43 13.02 58.10 18.94
  Q 61.54 20.55 66.05 25.84
  Q 67.55 27.61 89.78 52.05
  A 0.34 0.34 0.0 0 0 90.31 52.02
  Q 107.74 26.41 110.99 21.36
  C 115.34 14.62 120.31 10.23 128.34 10.24
  Z
  M 152.61 67.77
  A 0.31 0.31 0.0 0 0 152.64 67.39
  L 128.44 32.30
  A 0.31 0.31 0.0 0 0 127.93 32.31
  L 104.09 67.54
  A 0.31 0.31 0.0 0 0 104.12 67.92
  L 128.07 93.94
  A 0.31 0.31 0.0 0 0 128.53 93.94
  L 152.61 67.77
  Z"
/>
<path fill="#ffffff" d="
  M 678.67 35.08
  Q 688.58 35.08 695.75 36.24
  C 711.28 38.74 713.10 49.31 713.75 63.14
  Q 714.16 71.72 714.15 79.33
  Q 714.15 86.95 713.74 95.53
  C 713.08 109.36 711.25 119.93 695.72 122.42
  Q 688.55 123.57 678.64 123.57
  Q 668.73 123.57 661.56 122.41
  C 646.03 119.91 644.21 109.34 643.56 95.50
  Q 643.15 86.92 643.16 79.31
  Q 643.16 71.70 643.57 63.12
  C 644.23 49.28 646.06 38.71 661.59 36.22
  Q 668.76 35.07 678.67 35.08
  Z
  M 654.08 79.34
  C 654.08 86.50 654.25 93.27 655.11 101.73
  Q 656.12 111.70 665.30 112.65
  Q 672.01 113.34 678.59 113.34
  Q 685.16 113.34 691.87 112.64
  Q 701.05 111.69 702.05 101.72
  C 702.91 93.26 703.08 86.49 703.08 79.33
  C 703.07 72.18 702.90 65.40 702.04 56.94
  Q 701.03 46.97 691.85 46.03
  Q 685.14 45.33 678.57 45.34
  Q 671.99 45.34 665.28 46.03
  Q 656.10 46.99 655.10 56.95
  C 654.25 65.41 654.08 72.19 654.08 79.34
  Z"
/>
<path fill="#ffffff" d="
  M 334.85 103.25
  Q 334.90 103.25 334.94 103.23
  A 0.32 0.24 -83.8 0 0 335.08 103.08
  L 364.37 36.55
  A 0.87 0.86 -77.9 0 1 365.16 36.03
  L 378.79 36.03
  A 0.58 0.58 0.0 0 1 379.37 36.61
  L 379.37 121.91
  A 0.63 0.63 0.0 0 1 378.74 122.54
  L 369.16 122.54
  A 0.56 0.55 -90.0 0 1 368.61 121.98
  L 368.61 55.48
  A 0.14 0.13 -33.6 0 0 368.35 55.43
  L 339.01 122.06
  A 0.74 0.73 11.5 0 1 338.33 122.50
  Q 337.87 122.50 334.83 122.50
  Q 331.79 122.49 331.32 122.49
  A 0.74 0.73 -11.4 0 1 330.65 122.05
  L 301.42 55.37
  A 0.14 0.13 33.7 0 0 301.16 55.42
  L 301.05 121.92
  A 0.56 0.55 -89.9 0 1 300.50 122.48
  L 290.92 122.46
  A 0.63 0.63 0.0 0 1 290.29 121.83
  L 290.44 36.53
  A 0.58 0.58 0.0 0 1 291.02 35.95
  L 304.65 35.98
  A 0.87 0.86 78.0 0 1 305.44 36.50
  L 334.61 103.08
  A 0.32 0.24 83.9 0 0 334.75 103.23
  Q 334.79 103.25 334.85 103.25
  Z"
/>
<path fill="#ffffff" d="
  M 415.50 84.42
  L 415.50 111.83
  A 0.42 0.42 0.0 0 0 415.92 112.25
  L 460.58 112.25
  A 0.42 0.42 0.0 0 1 461.00 112.67
  L 461.00 122.08
  A 0.42 0.42 0.0 0 1 460.58 122.50
  L 404.92 122.50
  A 0.42 0.42 0.0 0 1 404.50 122.08
  L 404.50 36.42
  A 0.42 0.42 0.0 0 1 404.92 36.00
  L 460.58 36.00
  A 0.42 0.42 0.0 0 1 461.00 36.42
  L 461.00 45.83
  A 0.42 0.42 0.0 0 1 460.58 46.25
  L 415.92 46.25
  A 0.42 0.42 0.0 0 0 415.50 46.67
  L 415.50 73.33
  A 0.42 0.42 0.0 0 0 415.92 73.75
  L 454.58 73.75
  A 0.42 0.42 0.0 0 1 455.00 74.17
  L 455.00 83.58
  A 0.42 0.42 0.0 0 1 454.58 84.00
  L 415.92 84.00
  A 0.42 0.42 0.0 0 0 415.50 84.42
  Z"
/>
<path fill="#ffffff" d="
  M 537.32 36.01
  L 547.18 36.01
  A 0.32 0.32 0.0 0 1 547.50 36.33
  L 547.50 122.18
  A 0.32 0.32 0.0 0 1 547.18 122.50
  L 537.14 122.50
  A 0.32 0.32 0.0 0 1 536.87 122.36
  L 491.83 57.08
  A 0.32 0.32 0.0 0 0 491.25 57.26
  L 491.25 122.18
  A 0.32 0.32 0.0 0 1 490.93 122.50
  L 480.82 122.50
  A 0.32 0.32 0.0 0 1 480.50 122.18
  L 480.50 36.32
  A 0.32 0.32 0.0 0 1 480.82 36.00
  L 491.89 36.00
  A 0.32 0.32 0.0 0 1 492.16 36.14
  L 536.42 100.30
  A 0.32 0.32 0.0 0 0 537.00 100.12
  L 537.00 36.33
  A 0.32 0.32 0.0 0 1 537.32 36.01
  Z"
/>
<path fill="#ffffff" d="
  M 596.75 36.00
  Q 628.45 36.00 629.19 36.02
  A 0.33 0.32 -89.3 0 1 629.50 36.35
  L 629.50 46.23
  A 0.52 0.52 0.0 0 1 628.98 46.75
  L 602.58 46.75
  A 0.33 0.33 0.0 0 0 602.25 47.08
  L 602.25 122.04
  A 0.46 0.46 0.0 0 1 601.79 122.50
  Q 598.88 122.50 596.75 122.50
  Q 594.62 122.50 591.72 122.50
  A 0.46 0.46 0.0 0 1 591.26 122.04
  L 591.26 47.08
  A 0.33 0.33 0.0 0 0 590.93 46.75
  L 564.53 46.75
  A 0.52 0.52 0.0 0 1 564.01 46.23
  L 564.01 36.35
  A 0.33 0.32 89.3 0 1 564.32 36.02
  Q 565.06 36.00 596.75 36.00
  Z"
/>
<path fill="#ffffff" d="
  M 801.02 122.50
  L 790.56 122.50
  A 0.72 0.72 0.0 0 1 789.89 122.05
  L 776.33 89.18
  A 0.70 0.69 78.5 0 0 775.69 88.75
  L 747.84 88.75
  A 0.34 0.34 0.0 0 0 747.50 89.09
  L 747.50 121.91
  A 0.59 0.59 0.0 0 1 746.91 122.50
  L 737.13 122.50
  A 0.63 0.63 0.0 0 1 736.50 121.87
  L 736.50 36.32
  A 0.30 0.30 0.0 0 1 736.79 36.02
  Q 762.45 35.94 778.47 36.07
  Q 783.43 36.11 789.18 38.05
  C 795.91 40.32 798.97 46.27 799.88 53.80
  Q 800.72 60.74 800.02 68.51
  C 799.28 76.69 796.16 84.70 787.57 86.68
  A 0.52 0.52 0.0 0 0 787.21 87.38
  L 801.44 121.87
  A 0.46 0.45 78.8 0 1 801.02 122.50
  Z
  M 747.47 46.80
  L 747.53 77.98
  A 0.47 0.47 0.0 0 0 748.00 78.45
  L 777.03 78.39
  A 12.20 10.45 -0.1 0 0 789.21 67.92
  L 789.19 56.70
  A 12.20 10.45 -0.1 0 0 776.97 46.27
  L 747.94 46.33
  A 0.47 0.47 0.0 0 0 747.47 46.80
  Z"
/>
<rect fill="#ffffff" x="822.25" y="35.99" width="11.00" height="86.50" rx="0.35"/>
<path fill="#ffffff" d="
  M 888.95 36.00
  Q 892.26 36.00 895.33 36.11
  A 0.79 0.78 -8.9 0 1 896.05 36.63
  L 928.31 122.16
  A 0.26 0.26 0.0 0 1 928.07 122.52
  L 917.61 122.52
  A 0.81 0.80 -10.7 0 1 916.86 122.01
  L 908.42 100.16
  A 0.62 0.61 79.9 0 0 907.87 99.77
  Q 907.70 99.76 888.91 99.75
  Q 870.11 99.74 869.94 99.74
  A 0.62 0.61 -79.8 0 0 869.39 100.14
  L 860.93 121.97
  A 0.81 0.80 10.7 0 1 860.17 122.48
  L 849.71 122.47
  A 0.26 0.26 0.0 0 1 849.48 122.11
  L 881.84 36.62
  A 0.79 0.78 8.9 0 1 882.56 36.10
  Q 885.64 36.00 888.95 36.00
  Z
  M 873.04 88.76
  A 0.37 0.37 0.0 0 0 873.39 89.26
  L 904.11 89.26
  A 0.37 0.37 0.0 0 0 904.46 88.76
  L 889.10 48.41
  A 0.37 0.37 0.0 0 0 888.40 48.41
  L 873.04 88.76
  Z"
/>
</svg>
